<mxfile host="app.diagrams.net" modified="2022-12-01T07:38:41.822Z" agent="5.0 (Windows NT 10.0; Win64; x64) AppleWebKit/537.36 (KHTML, like Gecko) Chrome/107.0.0.0 Safari/537.36" etag="51QoIra04kxMuhJh_0B0" version="20.6.0" type="github">
  <diagram id="kgpKYQtTHZ0yAKxKKP6v" name="Page-1">
    <mxGraphModel dx="981" dy="487" grid="1" gridSize="10" guides="1" tooltips="1" connect="1" arrows="1" fold="1" page="1" pageScale="1" pageWidth="850" pageHeight="1100" math="0" shadow="0">
      <root>
        <mxCell id="0" />
        <mxCell id="1" parent="0" />
        <mxCell id="m1lpEVIgf9AYSpnn08gJ-1" value="行情云" style="shape=umlLifeline;perimeter=lifelinePerimeter;container=1;collapsible=0;recursiveResize=0;rounded=0;shadow=0;strokeWidth=1;" vertex="1" parent="1">
          <mxGeometry x="440" y="80" width="100" height="540" as="geometry" />
        </mxCell>
        <mxCell id="m1lpEVIgf9AYSpnn08gJ-2" value="" style="points=[];perimeter=orthogonalPerimeter;rounded=0;shadow=0;strokeWidth=1;" vertex="1" parent="m1lpEVIgf9AYSpnn08gJ-1">
          <mxGeometry x="45" y="80" width="10" height="430" as="geometry" />
        </mxCell>
        <mxCell id="m1lpEVIgf9AYSpnn08gJ-7" value="订阅行情" style="verticalAlign=bottom;endArrow=block;entryX=0;entryY=0;shadow=0;strokeWidth=1;" edge="1" parent="m1lpEVIgf9AYSpnn08gJ-1">
          <mxGeometry relative="1" as="geometry">
            <mxPoint x="-105" y="90" as="sourcePoint" />
            <mxPoint x="45" y="90" as="targetPoint" />
          </mxGeometry>
        </mxCell>
        <mxCell id="m1lpEVIgf9AYSpnn08gJ-8" value="推送" style="verticalAlign=bottom;endArrow=block;entryX=0.5;entryY=0.188;shadow=0;strokeWidth=1;entryDx=0;entryDy=0;entryPerimeter=0;" edge="1" parent="m1lpEVIgf9AYSpnn08gJ-1" target="3nuBFxr9cyL0pnOWT2aG-6">
          <mxGeometry relative="1" as="geometry">
            <mxPoint x="45" y="110" as="sourcePoint" />
            <mxPoint x="-100" y="110" as="targetPoint" />
            <Array as="points">
              <mxPoint x="-90" y="110" />
            </Array>
            <mxPoint as="offset" />
          </mxGeometry>
        </mxCell>
        <mxCell id="m1lpEVIgf9AYSpnn08gJ-12" value="持仓查询" style="verticalAlign=bottom;endArrow=block;shadow=0;strokeWidth=1;" edge="1" parent="m1lpEVIgf9AYSpnn08gJ-1">
          <mxGeometry relative="1" as="geometry">
            <mxPoint x="-110" y="171.99999999999997" as="sourcePoint" />
            <mxPoint x="194.5" y="171.99999999999997" as="targetPoint" />
          </mxGeometry>
        </mxCell>
        <mxCell id="m1lpEVIgf9AYSpnn08gJ-14" value="自动登录" style="verticalAlign=bottom;endArrow=block;shadow=0;strokeWidth=1;" edge="1" parent="m1lpEVIgf9AYSpnn08gJ-1">
          <mxGeometry relative="1" as="geometry">
            <mxPoint x="-109.99999999999989" y="140" as="sourcePoint" />
            <mxPoint x="194.5" y="140" as="targetPoint" />
          </mxGeometry>
        </mxCell>
        <mxCell id="m1lpEVIgf9AYSpnn08gJ-16" value="委托结果" style="verticalAlign=bottom;endArrow=block;shadow=0;strokeWidth=1;" edge="1" parent="m1lpEVIgf9AYSpnn08gJ-1" target="m1lpEVIgf9AYSpnn08gJ-4">
          <mxGeometry relative="1" as="geometry">
            <mxPoint x="-109.99999999999989" y="239.82999999999998" as="sourcePoint" />
            <mxPoint x="189.5999999999999" y="240.13000000000005" as="targetPoint" />
          </mxGeometry>
        </mxCell>
        <mxCell id="3nuBFxr9cyL0pnOWT2aG-1" value="客户" style="shape=umlLifeline;perimeter=lifelinePerimeter;container=1;collapsible=0;recursiveResize=0;rounded=0;shadow=0;strokeWidth=1;" parent="1" vertex="1">
          <mxGeometry x="120" y="80" width="100" height="540" as="geometry" />
        </mxCell>
        <mxCell id="3nuBFxr9cyL0pnOWT2aG-2" value="" style="points=[];perimeter=orthogonalPerimeter;rounded=0;shadow=0;strokeWidth=1;" parent="3nuBFxr9cyL0pnOWT2aG-1" vertex="1">
          <mxGeometry x="45" y="70" width="10" height="440" as="geometry" />
        </mxCell>
        <mxCell id="3nuBFxr9cyL0pnOWT2aG-3" value="点击下单" style="verticalAlign=bottom;startArrow=oval;endArrow=block;startSize=8;shadow=0;strokeWidth=1;" parent="3nuBFxr9cyL0pnOWT2aG-1" target="3nuBFxr9cyL0pnOWT2aG-2" edge="1">
          <mxGeometry relative="1" as="geometry">
            <mxPoint x="-15" y="70" as="sourcePoint" />
          </mxGeometry>
        </mxCell>
        <mxCell id="m1lpEVIgf9AYSpnn08gJ-25" value="划线下单" style="verticalAlign=bottom;startArrow=oval;endArrow=block;startSize=8;shadow=0;strokeWidth=1;" edge="1" parent="3nuBFxr9cyL0pnOWT2aG-1">
          <mxGeometry relative="1" as="geometry">
            <mxPoint x="-15" y="100" as="sourcePoint" />
            <mxPoint x="45" y="100" as="targetPoint" />
          </mxGeometry>
        </mxCell>
        <mxCell id="3nuBFxr9cyL0pnOWT2aG-5" value="条件单系统" style="shape=umlLifeline;perimeter=lifelinePerimeter;container=1;collapsible=0;recursiveResize=0;rounded=0;shadow=0;strokeWidth=1;" parent="1" vertex="1">
          <mxGeometry x="280" y="80" width="100" height="540" as="geometry" />
        </mxCell>
        <mxCell id="3nuBFxr9cyL0pnOWT2aG-6" value="" style="points=[];perimeter=orthogonalPerimeter;rounded=0;shadow=0;strokeWidth=1;" parent="3nuBFxr9cyL0pnOWT2aG-5" vertex="1">
          <mxGeometry x="45" y="80" width="10" height="430" as="geometry" />
        </mxCell>
        <mxCell id="m1lpEVIgf9AYSpnn08gJ-9" value="委托交易" style="verticalAlign=bottom;endArrow=block;shadow=0;strokeWidth=1;entryX=-0.04;entryY=0.378;entryDx=0;entryDy=0;entryPerimeter=0;" edge="1" parent="3nuBFxr9cyL0pnOWT2aG-5">
          <mxGeometry relative="1" as="geometry">
            <mxPoint x="55" y="201.66" as="sourcePoint" />
            <mxPoint x="354.5999999999999" y="201.96000000000004" as="targetPoint" />
          </mxGeometry>
        </mxCell>
        <mxCell id="3nuBFxr9cyL0pnOWT2aG-7" value="查询结果" style="verticalAlign=bottom;endArrow=classic;endSize=8;shadow=0;strokeWidth=1;exitX=0.029;exitY=0.576;exitDx=0;exitDy=0;exitPerimeter=0;endFill=1;" parent="1" source="3nuBFxr9cyL0pnOWT2aG-6" edge="1">
          <mxGeometry relative="1" as="geometry">
            <mxPoint x="175" y="408" as="targetPoint" />
            <mxPoint x="230" y="408" as="sourcePoint" />
          </mxGeometry>
        </mxCell>
        <mxCell id="3nuBFxr9cyL0pnOWT2aG-8" value="条件单请求" style="verticalAlign=bottom;endArrow=block;entryX=0;entryY=0;shadow=0;strokeWidth=1;" parent="1" source="3nuBFxr9cyL0pnOWT2aG-2" target="3nuBFxr9cyL0pnOWT2aG-6" edge="1">
          <mxGeometry relative="1" as="geometry">
            <mxPoint x="275" y="160" as="sourcePoint" />
          </mxGeometry>
        </mxCell>
        <mxCell id="3nuBFxr9cyL0pnOWT2aG-9" value="通知" style="verticalAlign=bottom;endArrow=block;entryX=0.972;entryY=0.148;shadow=0;strokeWidth=1;entryDx=0;entryDy=0;entryPerimeter=0;" parent="1" source="3nuBFxr9cyL0pnOWT2aG-6" target="3nuBFxr9cyL0pnOWT2aG-2" edge="1">
          <mxGeometry relative="1" as="geometry">
            <mxPoint x="240" y="200" as="sourcePoint" />
            <mxPoint x="180" y="190" as="targetPoint" />
          </mxGeometry>
        </mxCell>
        <mxCell id="3nuBFxr9cyL0pnOWT2aG-10" value="条件单查询" style="verticalAlign=bottom;endArrow=classic;shadow=0;strokeWidth=1;endFill=1;" parent="1" source="3nuBFxr9cyL0pnOWT2aG-2" edge="1">
          <mxGeometry relative="1" as="geometry">
            <mxPoint x="325.0000000000001" y="373.9999999999999" as="targetPoint" />
            <mxPoint x="180" y="373.9999999999999" as="sourcePoint" />
          </mxGeometry>
        </mxCell>
        <mxCell id="m1lpEVIgf9AYSpnn08gJ-3" value="macs中继" style="shape=umlLifeline;perimeter=lifelinePerimeter;container=1;collapsible=0;recursiveResize=0;rounded=0;shadow=0;strokeWidth=1;" vertex="1" parent="1">
          <mxGeometry x="590" y="80" width="100" height="540" as="geometry" />
        </mxCell>
        <mxCell id="m1lpEVIgf9AYSpnn08gJ-4" value="" style="points=[];perimeter=orthogonalPerimeter;rounded=0;shadow=0;strokeWidth=1;" vertex="1" parent="m1lpEVIgf9AYSpnn08gJ-3">
          <mxGeometry x="45" y="80" width="10" height="430" as="geometry" />
        </mxCell>
        <mxCell id="m1lpEVIgf9AYSpnn08gJ-20" value="持仓" style="verticalAlign=bottom;endArrow=block;shadow=0;strokeWidth=1;" edge="1" parent="m1lpEVIgf9AYSpnn08gJ-3">
          <mxGeometry relative="1" as="geometry">
            <mxPoint x="55" y="181" as="sourcePoint" />
            <mxPoint x="195" y="181" as="targetPoint" />
          </mxGeometry>
        </mxCell>
        <mxCell id="m1lpEVIgf9AYSpnn08gJ-5" value="CTP柜台" style="shape=umlLifeline;perimeter=lifelinePerimeter;container=1;collapsible=0;recursiveResize=0;rounded=0;shadow=0;strokeWidth=1;" vertex="1" parent="1">
          <mxGeometry x="740" y="80" width="100" height="540" as="geometry" />
        </mxCell>
        <mxCell id="m1lpEVIgf9AYSpnn08gJ-6" value="" style="points=[];perimeter=orthogonalPerimeter;rounded=0;shadow=0;strokeWidth=1;" vertex="1" parent="m1lpEVIgf9AYSpnn08gJ-5">
          <mxGeometry x="45" y="80" width="10" height="430" as="geometry" />
        </mxCell>
        <mxCell id="m1lpEVIgf9AYSpnn08gJ-17" value="撤销" style="verticalAlign=bottom;endArrow=block;entryX=0;entryY=0;shadow=0;strokeWidth=1;" edge="1" parent="1">
          <mxGeometry relative="1" as="geometry">
            <mxPoint x="174" y="443.0000000000001" as="sourcePoint" />
            <mxPoint x="324" y="443.0000000000001" as="targetPoint" />
          </mxGeometry>
        </mxCell>
        <mxCell id="m1lpEVIgf9AYSpnn08gJ-18" value="撤销结果" style="verticalAlign=bottom;endArrow=classic;endSize=8;shadow=0;strokeWidth=1;exitX=0.029;exitY=0.767;exitDx=0;exitDy=0;exitPerimeter=0;endFill=1;" edge="1" parent="1">
          <mxGeometry relative="1" as="geometry">
            <mxPoint x="174" y="470" as="targetPoint" />
            <mxPoint x="324.28999999999996" y="470.43999999999994" as="sourcePoint" />
          </mxGeometry>
        </mxCell>
        <mxCell id="m1lpEVIgf9AYSpnn08gJ-19" value="登录" style="verticalAlign=bottom;endArrow=block;shadow=0;strokeWidth=1;" edge="1" parent="1">
          <mxGeometry relative="1" as="geometry">
            <mxPoint x="645.0000000000001" y="228" as="sourcePoint" />
            <mxPoint x="785" y="228" as="targetPoint" />
          </mxGeometry>
        </mxCell>
        <mxCell id="m1lpEVIgf9AYSpnn08gJ-21" value="委托" style="verticalAlign=bottom;endArrow=block;shadow=0;strokeWidth=1;" edge="1" parent="1">
          <mxGeometry relative="1" as="geometry">
            <mxPoint x="646" y="295" as="sourcePoint" />
            <mxPoint x="786" y="295" as="targetPoint" />
          </mxGeometry>
        </mxCell>
        <mxCell id="m1lpEVIgf9AYSpnn08gJ-22" value="查询" style="verticalAlign=bottom;endArrow=block;shadow=0;strokeWidth=1;" edge="1" parent="1">
          <mxGeometry relative="1" as="geometry">
            <mxPoint x="646" y="328" as="sourcePoint" />
            <mxPoint x="786" y="328" as="targetPoint" />
          </mxGeometry>
        </mxCell>
        <mxCell id="m1lpEVIgf9AYSpnn08gJ-23" value="修改" style="verticalAlign=bottom;endArrow=block;entryX=0;entryY=0;shadow=0;strokeWidth=1;" edge="1" parent="1">
          <mxGeometry relative="1" as="geometry">
            <mxPoint x="176" y="507.0000000000001" as="sourcePoint" />
            <mxPoint x="326" y="507.0000000000001" as="targetPoint" />
          </mxGeometry>
        </mxCell>
        <mxCell id="m1lpEVIgf9AYSpnn08gJ-24" value="修改结果" style="verticalAlign=bottom;endArrow=classic;endSize=8;shadow=0;strokeWidth=1;exitX=0.029;exitY=0.767;exitDx=0;exitDy=0;exitPerimeter=0;endFill=1;" edge="1" parent="1">
          <mxGeometry relative="1" as="geometry">
            <mxPoint x="176" y="534" as="targetPoint" />
            <mxPoint x="326.28999999999996" y="534.4399999999999" as="sourcePoint" />
          </mxGeometry>
        </mxCell>
      </root>
    </mxGraphModel>
  </diagram>
</mxfile>
